<?xml version="1.0" encoding="UTF-8" standalone="no"?>
<!-- Created with Inkscape (http://www.inkscape.org/) -->

<svg
   xmlns:dc="http://purl.org/dc/elements/1.1/"
   xmlns:cc="http://creativecommons.org/ns#"
   xmlns:rdf="http://www.w3.org/1999/02/22-rdf-syntax-ns#"
   xmlns:svg="http://www.w3.org/2000/svg"
   xmlns="http://www.w3.org/2000/svg"
   xmlns:sodipodi="http://sodipodi.sourceforge.net/DTD/sodipodi-0.dtd"
   xmlns:inkscape="http://www.inkscape.org/namespaces/inkscape"
   id="svg2"
   version="1.1"
   inkscape:version="0.91 r13725"
   xml:space="preserve"
   width="70"
   height="70"
   viewBox="0 0 70 70"
   sodipodi:docname="log_external.svg"><metadata
     id="metadata8"><rdf:RDF><cc:Work
         rdf:about=""><dc:format>image/svg+xml</dc:format><dc:type
           rdf:resource="http://purl.org/dc/dcmitype/StillImage" /><dc:title></dc:title></cc:Work></rdf:RDF></metadata><defs
     id="defs6"><clipPath
       clipPathUnits="userSpaceOnUse"
       id="clipPath18"><path
         d="m 0.06,0.05999947 134.582,0 0,28.28599953 -134.582,0 0,-28.28599953 z"
         id="path20"
         inkscape:connector-curvature="0" /></clipPath><clipPath
       clipPathUnits="userSpaceOnUse"
       id="clipPath32"><path
         d="M 0,0 135,0 135,29 0,29 0,0 Z"
         id="path34"
         inkscape:connector-curvature="0" /></clipPath></defs><sodipodi:namedview
     pagecolor="#ffffff"
     bordercolor="#666666"
     borderopacity="1"
     objecttolerance="10"
     gridtolerance="10"
     guidetolerance="10"
     inkscape:pageopacity="0"
     inkscape:pageshadow="2"
     inkscape:window-width="1804"
     inkscape:window-height="1088"
     id="namedview4"
     showgrid="false"
     inkscape:zoom="2.5007407"
     inkscape:cx="-38.327402"
     inkscape:cy="45.633698"
     inkscape:window-x="0"
     inkscape:window-y="0"
     inkscape:window-maximized="0"
     inkscape:current-layer="g10" /><g
     id="g10"
     inkscape:groupmode="layer"
     inkscape:label="logo_external_centre_hosp_cmjn"
     transform="matrix(1.25,0,0,-1.25,0,70)"><g
       id="g12" /><g
       clip-path="url(#clipPath18)"
       id="g16"
       transform="matrix(1.0175134,0,0,1.101787,0.31885441,12.150291)"><path
         inkscape:connector-curvature="0"
         id="path22"
         style="fill:#33b652;fill-opacity:1;fill-rule:nonzero;stroke:none"
         d="m 4.835,0.05999947 28.347,0 0,28.28599953 -28.347,0 0,-28.28599953 z" /><path
         inkscape:connector-curvature="0"
         id="path24"
         style="fill:#231f20;fill-opacity:1;fill-rule:nonzero;stroke:none"
         d="m 46.677,7.089 8.182,14.17 -5.454,0 -5.732,-9.947 0,9.947 -4.837,0 0,-14.17 7.841,0" /><path
         inkscape:connector-curvature="0"
         id="path26"
         style="fill:#231f20;fill-opacity:1;fill-rule:nonzero;stroke:none"
         d="m 5.775,16.821 5.262,0 0,4.438 -8.912,0 C 0.791,21.259 0,20.178 0,18.844 L 0,9.504001 C 0,8.169001 1.082,7.087 2.416,7.087 l 8.621,0 0,4.439 -5.195,0 c -0.667,0 -1.007,0.342 -1.007,1.008 l 0,3.286 c 0,0.644 0.305,0.965 0.94,1.001" /></g><g
       clip-path="url(#clipPath32)"
       id="g30"
       transform="matrix(1.0175134,0,0,1.101787,0.31885441,12.150291)"><path
         inkscape:connector-curvature="0"
         id="path36"
         style="fill:#231f20;fill-opacity:1;fill-rule:nonzero;stroke:none"
         d="m 33.182,21.259 0,-8.73 c 0,-0.667 -0.341,-1.006 -1.007,-1.006 l -1.123,0 c -0.666,0 -1.006,0.339 -1.006,1.006 l 0,8.73 -4.836,0 0,-11.754999 0.004,0 c 0,-1.335 1.081,-2.417001 2.414,-2.417001 l 7.974,0 c 1.335,0 2.416,1.082001 2.416,2.417001 l 0,11.754999 -4.836,0" /><path
         inkscape:connector-curvature="0"
         id="path38"
         style="fill:#ffffff;fill-opacity:1;fill-rule:nonzero;stroke:none"
         d="m 15.647,7.087 0,4.95 4.942,0 0,-4.95 4.621,0 0,14.172 -4.621,0 0,-4.965 -4.942,0 0,4.965 -4.61,0 0,-14.172 4.61,0" /></g></g></svg>