<?xml version="1.0" encoding="utf-8"?>
<!-- Generator: Adobe Illustrator 21.1.0, SVG Export Plug-In . SVG Version: 6.00 Build 0)  -->
<svg version="1.1"
	 id="svg2" inkscape:version="0.91 r13725" sodipodi:docname="log_external.svg" xmlns:cc="http://creativecommons.org/ns#" xmlns:dc="http://purl.org/dc/elements/1.1/" xmlns:inkscape="http://www.inkscape.org/namespaces/inkscape" xmlns:rdf="http://www.w3.org/1999/02/22-rdf-syntax-ns#" xmlns:sodipodi="http://sodipodi.sourceforge.net/DTD/sodipodi-0.dtd" xmlns:svg="http://www.w3.org/2000/svg"
	 xmlns="http://www.w3.org/2000/svg" xmlns:xlink="http://www.w3.org/1999/xlink" x="0px" y="0px" viewBox="0 0 70 70"
	 style="enable-background:new 0 0 70 70;" xml:space="preserve">
<style type="text/css">
	.st0{fill:#302E2F;}
	.st1{fill:#EA148C;}
</style>
<rect class="st0" width="70" height="70"/>
<sodipodi:namedview  bordercolor="#666666" borderopacity="1" gridtolerance="10" guidetolerance="10" id="namedview4" inkscape:current-layer="g10" inkscape:cx="-38.327402" inkscape:cy="45.633698" inkscape:pageopacity="0" inkscape:pageshadow="2" inkscape:window-height="1088" inkscape:window-maximized="0" inkscape:window-width="1804" inkscape:window-x="0" inkscape:window-y="0" inkscape:zoom="2.5007407" objecttolerance="10" pagecolor="#ffffff" showgrid="false">
	</sodipodi:namedview>
<g>
	<g>
		<path class="st1" d="M20.7,28.5c-0.7,0-1.4,0.3-1.9,0.8L15.5,33c-3,2.9-4.5,6.7-4.5,10.7s1.6,7.9,4.5,10.7s6.7,4.5,10.7,4.5
			s7.9-1.6,10.7-4.5l3.5-3.5c0.5-0.5,0.8-1.2,0.8-1.9s-0.3-1.4-0.8-1.9c-0.5-0.5-1.2-0.8-1.9-0.8s-1.4,0.3-1.9,0.8L33,50.6
			c-1.8,1.8-4.3,2.8-6.9,2.8s-5.1-1-6.9-2.8c-1.8-1.8-2.8-4.3-2.8-6.9c0-2.6,1-5.1,2.8-6.9l3.5-3.5c0.5-0.5,0.8-1.2,0.8-1.9
			s-0.3-1.4-0.8-1.9C22.2,28.8,21.4,28.5,20.7,28.5z"/>
	</g>
	<g>
		<path class="st1" d="M47.1,36.5c-0.5,0.5-0.8,1.2-0.8,1.9c0,0.7,0.3,1.4,0.8,1.9c1.1,1.1,2.8,1.1,3.8,0l3.5-3.5
			c2.9-2.9,4.5-6.7,4.5-10.7s-1.6-7.9-4.5-10.7s-6.7-4.5-10.7-4.5c-4,0-7.9,1.6-10.7,4.5l-3.5,3.5c-1.1,1.1-1.1,2.8,0,3.9
			c0.5,0.5,1.2,0.8,1.9,0.8c0.7,0,1.4-0.3,1.9-0.8l3.5-3.5c1.8-1.8,4.3-2.8,6.9-2.8s5.1,1,6.9,2.8s2.8,4.3,2.8,6.9
			c0,2.6-1,5.1-2.8,6.9L47.1,36.5z"/>
	</g>
	<g>
		<path class="st1" d="M40.8,26.2c-0.7,0-1.4,0.3-1.9,0.8L27.2,38.8c-1.1,1.1-1.1,2.8,0,3.9c1.1,1.1,2.8,1.1,3.8,0L42.8,31
			c0.5-0.5,0.8-1.2,0.8-1.9c0-0.7-0.3-1.4-0.8-1.9C42.2,26.6,41.6,26.3,40.8,26.2C40.9,26.2,40.9,26.2,40.8,26.2z"/>
	</g>
</g>
</svg>
